<?xml version="1.0" standalone="no"?>
<!DOCTYPE svg PUBLIC "-//W3C//DTD SVG 20010904//EN"
 "http://www.w3.org/TR/2001/REC-SVG-20010904/DTD/svg10.dtd">
<svg version="1.0" xmlns="http://www.w3.org/2000/svg"
 width="256.000000pt" height="256.000000pt" viewBox="0 0 256.000000 256.000000"
 preserveAspectRatio="xMidYMid meet">

<g transform="translate(0.000000,256.000000) scale(0.100000,-0.100000)"
fill="#000000" stroke="none">
<path d="M1364 2425 c-86 -146 -733 -1281 -739 -1296 -3 -9 1 -24 10 -33 14
-14 49 -16 271 -16 l254 0 2 -502 3 -501 382 667 c210 367 385 675 388 685 3
11 -1 26 -10 35 -14 14 -50 16 -266 16 l-249 0 -2 508 -3 507 -41 -70z"/>
</g>
</svg>
