<?xml version="1.0" standalone="no"?>
<!DOCTYPE svg PUBLIC "-//W3C//DTD SVG 20010904//EN"
 "http://www.w3.org/TR/2001/REC-SVG-20010904/DTD/svg10.dtd">
<svg version="1.0" xmlns="http://www.w3.org/2000/svg"
 width="225.000000pt" height="225.000000pt" viewBox="0 0 225.000000 225.000000"
 preserveAspectRatio="xMidYMid meet">

<g transform="translate(0.000000,225.000000) scale(0.100000,-0.100000)"
fill="#000000" stroke="none">
<path d="M986 2235 c-79 -28 -136 -109 -136 -195 0 -30 -4 -50 -11 -50 -6 0
-38 -12 -70 -26 l-58 -26 -33 27 c-75 64 -159 80 -233 46 -54 -25 -181 -151
-205 -203 -35 -77 -20 -160 45 -236 l27 -33 -26 -58 c-14 -32 -26 -64 -26 -70
0 -7 -20 -11 -50 -11 -89 0 -177 -65 -199 -147 -14 -49 -14 -207 0 -256 22
-82 110 -147 199 -147 30 0 50 -4 50 -11 0 -6 12 -38 26 -70 l26 -58 -27 -33
c-65 -76 -80 -159 -45 -236 24 -52 151 -178 205 -203 74 -34 158 -18 233 46
l33 27 58 -26 c32 -14 64 -26 70 -26 7 0 11 -20 11 -50 0 -89 65 -177 147
-199 49 -14 207 -14 256 0 82 22 147 110 147 199 0 30 4 50 11 50 6 0 38 12
70 26 l58 26 33 -27 c76 -65 158 -80 236 -45 57 26 176 145 202 202 35 78 20
160 -45 236 l-27 33 26 58 c14 32 26 64 26 70 0 7 20 11 50 11 89 0 177 65
199 147 14 49 14 207 0 256 -22 82 -110 147 -199 147 -30 0 -50 4 -50 11 0 6
-12 38 -26 70 l-26 58 27 33 c65 76 80 158 45 236 -26 57 -145 176 -202 202
-78 35 -160 20 -236 -45 l-33 -27 -58 26 c-32 14 -64 26 -70 26 -7 0 -11 20
-11 50 0 89 -65 177 -147 199 -54 15 -220 13 -267 -4z m259 -140 c22 -21 25
-33 25 -93 0 -82 20 -116 73 -126 19 -3 71 -24 116 -46 45 -22 91 -40 102 -40
10 0 46 25 79 55 82 75 95 74 187 -18 92 -92 93 -105 18 -187 -30 -33 -55 -69
-55 -79 0 -11 18 -57 40 -102 22 -45 43 -97 46 -116 10 -53 44 -73 126 -73 60
0 72 -3 93 -25 23 -22 25 -32 25 -120 0 -88 -2 -98 -25 -120 -21 -22 -33 -25
-93 -25 -82 0 -116 -20 -126 -73 -3 -19 -24 -71 -46 -116 -22 -45 -40 -91 -40
-102 0 -10 25 -46 55 -79 75 -82 74 -95 -18 -187 -92 -92 -105 -93 -187 -18
-33 30 -69 55 -79 55 -11 0 -57 -18 -102 -40 -45 -22 -97 -43 -116 -46 -53
-10 -73 -44 -73 -126 0 -60 -3 -72 -25 -93 -22 -23 -32 -25 -120 -25 -88 0
-98 2 -120 25 -22 21 -25 33 -25 93 0 82 -20 116 -73 126 -19 3 -71 24 -116
46 -45 22 -91 40 -102 40 -10 0 -46 -25 -79 -55 -82 -75 -95 -74 -187 18 -92
92 -93 105 -18 187 30 33 55 69 55 79 0 11 -18 57 -40 102 -22 45 -43 97 -46
116 -10 53 -44 73 -126 73 -60 0 -72 3 -93 25 -23 22 -25 32 -25 120 0 88 2
98 25 120 21 22 33 25 93 25 82 0 116 20 126 73 3 19 24 71 46 116 22 45 40
91 40 102 0 10 -25 46 -55 79 -75 82 -74 95 18 187 92 92 105 93 187 18 33
-30 69 -55 79 -55 11 0 57 18 102 40 45 22 97 43 116 46 53 10 73 44 73 126 0
60 3 72 25 93 22 23 32 25 120 25 88 0 98 -2 120 -25z"/>
<path d="M980 1591 c-155 -49 -279 -175 -324 -330 -9 -30 -16 -91 -16 -136 0
-136 47 -251 140 -345 94 -93 209 -140 345 -140 136 0 251 47 345 140 93 94
140 209 140 345 0 45 -7 106 -16 136 -46 157 -176 287 -333 333 -73 21 -210
20 -281 -3z m304 -146 c67 -34 132 -101 166 -170 22 -43 25 -64 25 -150 0 -90
-3 -106 -28 -155 -37 -72 -96 -131 -165 -166 -51 -26 -67 -29 -157 -29 -90 0
-106 3 -155 28 -72 37 -131 96 -166 165 -26 51 -29 67 -29 157 0 113 19 166
84 238 78 86 157 118 282 114 71 -3 96 -8 143 -32z"/>
</g>
</svg>
